<svg viewBox="0 0 100 130" xmlns="http://www.w3.org/2000/svg">
  <defs>
    <linearGradient id="glass" x1="0" y1="0" x2="1" y2="1">
      <stop offset="0" stop-color="#6b8a6b" stop-opacity=".35"/>
      <stop offset="1" stop-color="#3a5a3a" stop-opacity=".5"/>
    </linearGradient>
    <linearGradient id="wick" x1="0" y1="0" x2="0" y2="1">
      <stop offset="0" stop-color="#b08040"/><stop offset="1" stop-color="#6a4a22"/>
    </linearGradient>
  </defs>
  <!-- corpo cicciona: pancia larga, collo corto -->
  <path d="M50 12
           C46 12 44 15 44 19
           C44 23 40 24 36 27
           C22 36 14 52 14 74
           C14 104 30 122 50 122
           C70 122 86 104 86 74
           C86 52 78 36 64 27
           C60 24 56 23 56 19
           C56 15 54 12 50 12 Z"
        fill="url(#glass)" stroke="#4a6a4a" stroke-width="2.5"/>
  <!-- fondo in vimini (intreccio) -->
  <clipPath id="bot"><path d="M16 88 C20 112 34 122 50 122 C66 122 80 112 84 88 Z"/></clipPath>
  <g clip-path="url(#bot)">
    <rect x="10" y="86" width="80" height="40" fill="url(#wick)"/>
    <g stroke="#4a2f14" stroke-width="1.6" opacity=".8">
      <path d="M10 92 h80 M10 100 h80 M10 108 h80 M10 116 h80"/>
      <path d="M22 86 v40 M34 86 v40 M46 86 v40 M58 86 v40 M70 86 v40 M82 86 v40"/>
    </g>
    <g stroke="#c89a5a" stroke-width="1" opacity=".5">
      <path d="M16 96 q6 -4 12 0 t12 0 t12 0 t12 0 t12 0"/>
      <path d="M16 112 q6 -4 12 0 t12 0 t12 0 t12 0 t12 0"/>
    </g>
  </g>
  <!-- tappo di sughero -->
  <rect x="44" y="6" width="12" height="9" rx="2" fill="#8a5a2c" stroke="#5a3a18"/>
  <!-- riflesso vetro -->
  <path d="M34 34 Q26 60 30 84" stroke="rgba(255,255,255,.3)" stroke-width="4" fill="none" stroke-linecap="round"/>
</svg>
